<svg id="Layer_1" data-name="Layer 1" xmlns="http://www.w3.org/2000/svg" viewBox="0 0 69.32 63.78"><g style="isolation:isolate"><path d="M62.4,36.38h0A30.46,30.46,0,0,1,58.84,49s-5,10.36-21,10.5-21.27-10-21.27-10a30.34,30.34,0,0,1-3.71-12.64h0a1.83,1.83,0,0,1,0-.33c0-2,1.18-3.81,3.26-5.41l2.24,1.41c-1.37.93-2.16,2-2.15,3.07,0,3.87,9.65,6.91,21.48,6.81s21.39-3.32,21.36-7.18c0-2.68-4.65-5-11.41-6.08v-2.8c8.66,1.61,14.72,5.34,14.76,9.75,0,.11,0,.22,0,.32M21,20.11a4.65,4.65,0,0,0,.64,3.13,7.15,7.15,0,0,0,2.73,2.6,7.06,7.06,0,0,0-.92-3.39,9.42,9.42,0,0,0-2.24-2.59,44.88,44.88,0,0,0-4.47-5.16l-3.06-3.12s1.1,1.26,2.93,3.23A47.5,47.5,0,0,1,21,20.11m7.73,16.6A14,14,0,0,0,32,39.3a11.36,11.36,0,0,0,4.36,1.23,7.64,7.64,0,0,0-3.27-3.44A5.71,5.71,0,0,0,29,36.45c-2.8-1.61-5.21-3.25-7.15-4.42-2.77-1.67-4.57-2.52-4.57-2.52s1.75.93,4.46,2.69c1.86,1.21,4.19,2.88,7,4.51m1.57-8.9a5.27,5.27,0,0,0,.21,3.75,8.18,8.18,0,0,0,2.74,3.49,8.35,8.35,0,0,0-.46-4.11,11.48,11.48,0,0,0-2.21-3.39,47.78,47.78,0,0,0-4.42-6.74L23,16.67l3,4.23a52.93,52.93,0,0,1,4.31,6.91M25.09,32.3a12.85,12.85,0,0,0,3.14,2.34,10.54,10.54,0,0,0,4.08,1,7.24,7.24,0,0,0-3.12-3.12,5.36,5.36,0,0,0-3.81-.52c-2.65-1.44-4.92-2.93-6.74-4-2.61-1.53-4.3-2.29-4.29-2.3s1.64.86,4.19,2.46c1.75,1.11,3.95,2.62,6.55,4.09M21.34,28a11.59,11.59,0,0,0,2.95,2.12,9.51,9.51,0,0,0,3.8.9,6.76,6.76,0,0,0-2.95-2.81,5,5,0,0,0-3.54-.44c-2.47-1.3-4.59-2.65-6.29-3.62-2.44-1.38-4-2.08-4-2.09s1.52.79,3.91,2.24c1.64,1,3.69,2.39,6.12,3.7M17.5,21.61a5.64,5.64,0,0,0,2.72,1.19,4,4,0,0,0-1.28-2.73,4.31,4.31,0,0,0-2.68-1,79.23,79.23,0,0,0-9.15-6.61l-.2-.13a111.74,111.74,0,0,1,9.25,7.12,4.39,4.39,0,0,0,1.34,2.16m-.06,2.06a10.7,10.7,0,0,0,2.75,1.91,8.75,8.75,0,0,0,3.5.79A6.4,6.4,0,0,0,21,23.82a4.81,4.81,0,0,0-3.27-.37c-2.28-1.16-4.25-2.4-5.83-3.27C9.6,18.91,8.14,18.3,8.14,18.29s1.43.69,3.63,2c1.52.9,3.42,2.16,5.67,3.35m8.28.16a5,5,0,0,0,.44,3.45,7.58,7.58,0,0,0,2.75,3,7.81,7.81,0,0,0-.7-3.75,10.51,10.51,0,0,0-2.25-3,46.58,46.58,0,0,0-4.46-5.95L18.39,14l3,3.73a50.87,50.87,0,0,1,4.37,6.1m17.14,4a4.71,4.71,0,0,0-1.47,2.95,7,7,0,0,0,.54,3.78,7.21,7.21,0,0,0,1.44-3.32,9.57,9.57,0,0,0-.19-3.49,40.61,40.61,0,0,0-.44-7c-.36-2.74-.61-4.44-.61-4.44l.44,4.45a45.62,45.62,0,0,1,.29,7m-1.61-4.51a4.4,4.4,0,0,0-1.18,2.83,6.45,6.45,0,0,0,.75,3.46,6.88,6.88,0,0,0,1.12-3.16,9.23,9.23,0,0,0-.39-3.22,39.33,39.33,0,0,0-.81-6.41L40,12.79l.64,4.08a42.72,42.72,0,0,1,.66,6.49M39.39,19a4,4,0,0,0-.9,2.67,5.89,5.89,0,0,0,.91,3.14,6.38,6.38,0,0,0,.81-3,8.34,8.34,0,0,0-.55-2.93A34.61,34.61,0,0,0,38.53,13l-1-3.69L38.39,13a38.66,38.66,0,0,1,1,5.93m3.39,20.66a7.85,7.85,0,0,0,1.8-3.45,10.44,10.44,0,0,0,0-3.77,41.31,41.31,0,0,0,0-7.52c-.21-3-.39-4.81-.39-4.81l.21,4.81a45.91,45.91,0,0,1-.14,7.58,5.22,5.22,0,0,0-1.78,3.06,7.59,7.59,0,0,0,.3,4.1m-9.3-23.52a8,8,0,0,0,1.3,2.31A6.57,6.57,0,0,0,37,20.13,5,5,0,0,0,36,17.36,3.61,3.61,0,0,0,33.73,16c-1.24-1.62-2.21-3.17-3-4.33a33,33,0,0,0-2-2.62s.78,1,1.9,2.69c.78,1.16,1.7,2.72,2.91,4.34m.77-1.5a4.24,4.24,0,0,0,1.54,1.77,3.25,3.25,0,0,0,0-2.42,3.32,3.32,0,0,0-1.58-1.62A62.09,62.09,0,0,0,30,4.44l-.1-.16a85.52,85.52,0,0,1,4.17,8.28,3.46,3.46,0,0,0,.2,2m1.9,8.46A7.63,7.63,0,0,0,38.57,25a5.23,5.23,0,0,0-1.13-3,3.9,3.9,0,0,0-2.39-1.49c-1.33-1.76-2.38-3.46-3.27-4.74-1.26-1.82-2.15-2.85-2.15-2.85s.84,1.07,2,2.94c.82,1.27,1.81,3,3.11,4.74a9,9,0,0,0,1.37,2.53m1.11-8.41a3.88,3.88,0,0,0-.64,2.5A5.54,5.54,0,0,0,37.67,20a5.91,5.91,0,0,0,.54-2.79,7.51,7.51,0,0,0-.71-2.64,35,35,0,0,0-1.4-5.26L35,6s.35,1.29,1,3.34a39.57,39.57,0,0,1,1.28,5.35M36,25a9.72,9.72,0,0,0,1.43,2.75A8.09,8.09,0,0,0,40,29.83a5.67,5.67,0,0,0-1.16-3.32,4.08,4.08,0,0,0-2.56-1.65c-1.4-1.94-2.51-3.78-3.45-5.17-1.34-2-2.29-3.1-2.28-3.11s.88,1.17,2.15,3.2C33.54,21.17,34.58,23,36,25M22.64,37.24s1.53.86,3.94,2.53l.51.1c-2.7-1.76-4.46-2.62-4.45-2.63m19.11,3.2a5.58,5.58,0,0,0-1.11-1.28,9.65,9.65,0,0,0-.41-.95,11.75,11.75,0,0,0,1.87,1.45v-.14c.1.33.19.66.29,1l.46,0c-.29-1-.6-1.88-1-2.76a6,6,0,0,0-.64-1.54c-.3-.69-.61-1.35-.91-2,.36.25.66.41.81.53A6,6,0,0,0,40,31.1,4.42,4.42,0,0,0,38,29.48L36,25.84s.62,1.33,1.7,3.57l-.43-.13c-1.47-2.11-2.62-4.11-3.61-5.61a40.34,40.34,0,0,0-2.4-3.36s.93,1.26,2.26,3.46c.92,1.5,2,3.5,3.43,5.6a10.32,10.32,0,0,0,1.47,3,7,7,0,0,0,1.37,1.43c.16.37.34.75.51,1.15a4.71,4.71,0,0,0-2.19-1.22L37.67,33c-.94-2-2-3.75-2.81-5.21-1.87-3.21-3.09-5.18-3.08-5.18l2.87,5.27c.21.4.44.82.68,1.26-.31-.53-.61-1-.89-1.48C33,25.35,31.92,24,31.93,24s1,1.37,2.35,3.73c.81,1.39,1.75,3.17,2.92,5.09.51,1.12,1,2.31,1.44,3.56a9.19,9.19,0,0,0-.35,1C37,35.21,36,33.2,35,31.66c-.3-.51-.58-1-.85-1.38a55,55,0,0,0-3.62-6.07c-1.9-2.88-3.12-4.65-3.11-4.65l2.92,4.74A54,54,0,0,1,34.53,32a5.74,5.74,0,0,0-.05,4.06A8.75,8.75,0,0,0,37.17,40,9,9,0,0,0,37.09,36c.34.62.7,1.26,1.08,1.91a6.37,6.37,0,0,0,.12,2.87c1.19,0,2.38-.08,3.53-.16a.54.54,0,0,0-.07-.13M24.86,36.11C21.94,34.27,20,33.35,20,33.34s1.84,1,4.7,2.95c1.66,1.13,3.68,2.61,6,4.13l.87.07c-2.62-1.62-4.9-3.21-6.76-4.38m21,1A44.62,44.62,0,0,0,46.27,29l-.15-5.19s0,2,0,5.18a47,47,0,0,1-.62,8.11,5.72,5.72,0,0,0-2.12,3.15,1,1,0,0,0,0,.17c.84-.08,1.65-.19,2.44-.3a12.41,12.41,0,0,0,.11-3.06" style="fill:#2d3b8e"/></g></svg>