<svg id="Layer_1" data-name="Layer 1" xmlns="http://www.w3.org/2000/svg" viewBox="0 0 101.48 101.48"><path d="M84.56,41.68A35,35,0,1,0,59.8,84.56,35,35,0,0,0,84.56,41.68M1.73,63.87A50.74,50.74,0,1,1,63.87,99.75,50.8,50.8,0,0,1,1.73,63.87" style="fill:#2d3b8e"/><path d="M84.56,41.68c.1.34.17.68.25,1,0,0,0,.07.13.53L100.34,40s-.39-1.63-.59-2.4a59.76,59.76,0,0,0-3.49-9.3l-14.4,6.37a36.39,36.39,0,0,1,2.7,7" style="fill:#4d4d4d"/><path d="M96.36,28.57A47.93,47.93,0,0,0,85.89,14.2c-3.83,3.57-7.5,7.31-11.09,11.12a35,35,0,0,1,7,9.37Z"/></svg>