<svg id="Layer_1" data-name="Layer 1" xmlns="http://www.w3.org/2000/svg" viewBox="0 0 69.32 63.78"><path d="M33.52,25.09a2.32,2.32,0,0,0-2.29,2.3,2.31,2.31,0,0,0,4.61,0,2.33,2.33,0,0,0-2.31-2.34Zm8.8,2.26a2.3,2.3,0,0,0,2.27,2.37,2.32,2.32,0,0,0,0-4.63h0A2.31,2.31,0,0,0,42.32,27.35ZM34.13,39.78a12.82,12.82,0,0,0,3.08,1.13,8.61,8.61,0,0,0,6.26-1.06A2.26,2.26,0,0,0,44.65,38H33A2.14,2.14,0,0,0,34.13,39.78Zm4.93,4.34A19.18,19.18,0,1,1,58.2,25,19.17,19.17,0,0,1,39.06,44.12Zm11,9.14c0-.46-.11-.88-.77-.71-.1,0-.24-.16-.38-.22-.4-.19-.81-.38-1.1.16-.27-.82-.39-.86-1.94-.51a2.15,2.15,0,0,0,.31-.23c.1-.1.19-.22.29-.33-.13-.11-.27-.32-.4-.31a3.42,3.42,0,0,1-.44,0c-.46-.06-.93-.12-1.14.58,0,0-.41,0-.48-.1a1.41,1.41,0,0,0-2.22,0,5,5,0,0,1-.65.59c.13-.88-.14-1.1-.82-.82a4.37,4.37,0,0,0-.77.41c-.3.19-.6.4-.19.79.05,0-.06.25-.11.42a2.94,2.94,0,0,0-.65-.57.71.71,0,0,0-.64.05,1.94,1.94,0,0,1-2,.44c-.36-.17-.73-.36-1.08-.55a2.4,2.4,0,0,1-.29-.19c3.88-2.65,14.32-3.1,18.49,1-.88.21-1.66.4-2.45.61l-.18,0C50.22,53.75,50.14,53.54,50.11,53.26Zm-11.31,4a9.66,9.66,0,0,1-4.89-3.56,18.23,18.23,0,0,0-4.85-4.57c-1.29,1.79-3.13,2.14-5.12,1.92a7.48,7.48,0,0,1-5.51-3,3.45,3.45,0,0,1-.55-3l-6-1.56c-.19,0-.45-.08-.54-.22s-.27-.6-.17-.69a1.06,1.06,0,0,1,.82-.34c1.47.35,2.92.78,4.38,1.18a1.7,1.7,0,0,1,.32.1,3.07,3.07,0,0,0,3-.12c3-1.64,7.91.08,9.29,3a2.64,2.64,0,0,1,.31,1.23,1,1,0,0,0,.65,1,17.76,17.76,0,0,1,4.53,3.52,5.92,5.92,0,0,0,1.89,1.15A17.59,17.59,0,0,0,46,54.77c2.32-.28,4.61-.81,6.92-1.22a1.57,1.57,0,0,1,.31,0,2.46,2.46,0,0,1-.8,1.74A7.71,7.71,0,0,1,49,57.21a19.38,19.38,0,0,1-5.34.81A15.27,15.27,0,0,1,38.8,57.23Z" style="fill:#2d3b8e"/></svg>